<svg version="1.1" xmlns="http://www.w3.org/2000/svg" xmlns:xlink="http://www.w3.org/1999/xlink" width="50px" height="50px" viewBox="0,0,256,256"><g fill="#ffffff" fill-rule="nonzero" stroke="none" stroke-width="1" stroke-linecap="butt" stroke-linejoin="miter" stroke-miterlimit="10" stroke-dasharray="" stroke-dashoffset="0" font-family="none" font-weight="none" font-size="none" text-anchor="none" style="mix-blend-mode: normal"><g transform="scale(5.12,5.12)"><path d="M41.67,30.97c-0.06,0.168 -0.122,0.335 -0.187,0.5c-2.475,6.328 -8.651,10.83 -15.843,10.83c-9.37,0 -17,-7.63 -17,-17c0,-8.013 5.575,-14.75 13.05,-16.535c0.156,-0.037 0.313,-0.072 0.47,-0.105c0.51,-0.11 0.85,0.51 0.54,0.92c-0.103,0.129 -0.204,0.26 -0.303,0.393c-1.736,2.334 -2.757,5.214 -2.757,8.327c0,6 3.42,10.33 7.73,12.51c1.89,0.96 4.02,1.49 6.27,1.49c2.405,0 4.659,-0.61 6.64,-1.678c0.186,-0.1 0.369,-0.204 0.55,-0.312c0.45,-0.27 1.01,0.16 0.84,0.66zM25.64,41.3c6.53,0 12.15,-3.93 14.64,-9.55c-2,0.99 -4.25,1.55 -6.64,1.55c-8.27,0 -15,-6.73 -15,-15c0,-3.1 0.94,-5.97 2.55,-8.36c-6.67,1.93 -11.55,8.08 -11.55,15.36c0,8.82 7.18,16 16,16z"></path></g></g></svg>