<svg xmlns="http://www.w3.org/2000/svg" xmlns:xlink="http://www.w3.org/1999/xlink" viewBox="0,0,256,256" width="100px" height="100px"><g fill="#ffffff" fill-rule="nonzero" stroke="none" stroke-width="1" stroke-linecap="butt" stroke-linejoin="miter" stroke-miterlimit="10" stroke-dasharray="" stroke-dashoffset="0" font-family="none" font-weight="none" font-size="none" text-anchor="none" style="mix-blend-mode: normal"><g transform="scale(5.12,5.12)"><path d="M25,15c5.523,0 10,4.477 10,10c0,5.523 -4.477,10 -10,10c-5.523,0 -10,-4.477 -10,-10c0,-5.523 4.477,-10 10,-10zM25,34c4.971,0 9,-4.029 9,-9c0,-4.971 -4.029,-9 -9,-9c-4.971,0 -9,4.029 -9,9c0,4.971 4.029,9 9,9zM25.5,4.5c0,0.176 0,5.824 0,6c0,0.276 -0.224,0.5 -0.5,0.5c-0.276,0 -0.5,-0.224 -0.5,-0.5c0,-0.176 0,-5.824 0,-6c0,-0.276 0.224,-0.5 0.5,-0.5c0.276,0 0.5,0.224 0.5,0.5zM39.849,10.858c-0.124,0.124 -4.118,4.118 -4.243,4.243c-0.195,0.195 -0.512,0.195 -0.707,0c-0.195,-0.195 -0.195,-0.512 0,-0.707c0.124,-0.124 4.118,-4.118 4.243,-4.243c0.195,-0.195 0.512,-0.195 0.707,0c0.195,0.195 0.196,0.512 0,0.707zM45.5,25.5c-0.176,0 -5.824,0 -6,0c-0.276,0 -0.5,-0.224 -0.5,-0.5c0,-0.276 0.224,-0.5 0.5,-0.5c0.176,0 5.824,0 6,0c0.276,0 0.5,0.224 0.5,0.5c0,0.276 -0.224,0.5 -0.5,0.5zM39.142,39.849c-0.124,-0.124 -4.118,-4.118 -4.243,-4.243c-0.195,-0.195 -0.195,-0.512 0,-0.707c0.195,-0.195 0.512,-0.195 0.707,0c0.124,0.124 4.118,4.118 4.243,4.243c0.195,0.195 0.195,0.512 0,0.707c-0.195,0.195 -0.512,0.196 -0.707,0zM24.5,45.5c0,-0.176 0,-5.824 0,-6c0,-0.276 0.224,-0.5 0.5,-0.5c0.276,0 0.5,0.224 0.5,0.5c0,0.176 0,5.824 0,6c0,0.276 -0.224,0.5 -0.5,0.5c-0.276,0 -0.5,-0.224 -0.5,-0.5zM10.151,39.142c0.124,-0.124 4.118,-4.118 4.243,-4.243c0.195,-0.195 0.512,-0.195 0.707,0c0.195,0.195 0.195,0.512 0,0.707c-0.124,0.124 -4.118,4.118 -4.243,4.243c-0.195,0.195 -0.512,0.195 -0.707,0c-0.195,-0.195 -0.196,-0.512 0,-0.707zM4.5,24.5c0.176,0 5.824,0 6,0c0.276,0 0.5,0.224 0.5,0.5c0,0.276 -0.224,0.5 -0.5,0.5c-0.176,0 -5.824,0 -6,0c-0.276,0 -0.5,-0.224 -0.5,-0.5c0,-0.276 0.224,-0.5 0.5,-0.5zM10.858,10.151c0.124,0.124 4.118,4.118 4.243,4.243c0.195,0.195 0.195,0.512 0,0.707c-0.195,0.195 -0.512,0.195 -0.707,0c-0.124,-0.124 -4.118,-4.118 -4.243,-4.243c-0.195,-0.195 -0.195,-0.512 0,-0.707c0.195,-0.195 0.512,-0.196 0.707,0z"></path></g></g></svg>