<svg version="1.1" xmlns="http://www.w3.org/2000/svg" xmlns:xlink="http://www.w3.org/1999/xlink" width="50px" height="50px" viewBox="0,0,256,256"><g fill="#ffffff" fill-rule="nonzero" stroke="none" stroke-width="1" stroke-linecap="butt" stroke-linejoin="miter" stroke-miterlimit="10" stroke-dasharray="" stroke-dashoffset="0" font-family="none" font-weight="none" font-size="none" text-anchor="none" style="mix-blend-mode: normal"><g transform="scale(5.12,5.12)"><path d="M11.866,39.976c-4.34,-0.089 -7.87,-3.845 -7.87,-8.372c0,-3.649 2.352,-6.881 5.764,-7.985c0.261,-3.922 3.528,-7.053 7.448,-7.053c0.72,0 1.437,0.108 2.138,0.322c2.031,-3.797 5.887,-6.138 10.165,-6.138c6.381,0 11.572,5.255 11.572,11.715c0,0.917 -0.111,1.841 -0.331,2.754c3.117,0.976 5.252,3.873 5.252,7.215c0,4.078 -3.163,7.46 -7.051,7.541c-1.676,0.034 -25.414,0.034 -27.087,0.001zM17.208,17.565c-3.5,0 -6.399,2.889 -6.464,6.439c-0.004,0.222 -0.153,0.415 -0.367,0.473c-3.168,0.872 -5.381,3.802 -5.381,7.126c0,3.987 3.092,7.293 6.892,7.372c1.641,0.034 25.401,0.034 27.044,0c3.349,-0.068 6.072,-3.003 6.072,-6.541c0,-3.052 -2.047,-5.675 -4.978,-6.378c-0.132,-0.032 -0.246,-0.116 -0.314,-0.234c-0.068,-0.118 -0.087,-0.258 -0.05,-0.389c0.279,-0.982 0.421,-1.981 0.421,-2.968c0,-5.909 -4.743,-10.715 -10.572,-10.715c-4.038,0 -7.666,2.287 -9.467,5.969c-0.113,0.23 -0.383,0.339 -0.622,0.249c-0.724,-0.267 -1.468,-0.403 -2.214,-0.403z"></path></g></g></svg>