<svg version="1.1" xmlns="http://www.w3.org/2000/svg" xmlns:xlink="http://www.w3.org/1999/xlink" width="50px" height="50px" viewBox="0,0,256,256"><g fill="#ffffff" fill-rule="nonzero" stroke="none" stroke-width="1" stroke-linecap="butt" stroke-linejoin="miter" stroke-miterlimit="10" stroke-dasharray="" stroke-dashoffset="0" font-family="none" font-weight="none" font-size="none" text-anchor="none" style="mix-blend-mode: normal"><g transform="scale(5.12,5.12)"><path d="M33.72656,8.08398c-5.043,0.899 -8.70312,5.27811 -8.70312,10.41211c0,0.1166 0.01574,0.23266 0.01953,0.34961c-1.24091,-0.54519 -2.60923,-0.8457 -4.04297,-0.8457c-5.514,0 -10,4.57389 -10,10.08789c-2.84,0.481 -5,2.98911 -5,5.91211c0,3.309 2.691,6 6,6h20.5c4.136,0 7.5,-3.364 7.5,-7.5c0,-1.44564 -0.41764,-2.79312 -1.12891,-3.93945c3.68764,-1.1962 6.45753,-4.34053 7.14258,-8.18945c0.036,-0.2 -0.05356,-0.40177 -0.22656,-0.50977c-0.173,-0.108 -0.39159,-0.10142 -0.55859,0.01758c-3.149,2.27 -7.42487,1.91611 -10.17187,-0.83789c-2.754,-2.746 -3.10689,-7.02387 -0.83789,-10.17188c0.12,-0.166 0.12558,-0.38659 0.01758,-0.55859c-0.108,-0.172 -0.30676,-0.26356 -0.50977,-0.22656zM32.74805,9.34961c-1.794,3.402 -1.20044,7.60444 1.60156,10.39844c2.794,2.802 6.99544,3.39947 10.39844,1.60547c-0.94879,3.04987 -3.39132,5.44477 -6.5,6.33789c-1.37681,-1.643 -3.44139,-2.69141 -5.74805,-2.69141c-0.635,0 -1.27058,0.08209 -1.89258,0.24609c-0.72106,-2.5373 -2.37345,-4.60075 -4.5332,-5.86914c-0.02641,-0.29258 -0.05078,-0.58696 -0.05078,-0.88086c0,-4.247 2.76561,-7.92248 6.72461,-9.14648zM21,19c4.22,0 7.82363,2.87233 8.76563,6.98633c0.083,0.367 0.45444,0.42828 0.64844,0.36328c0.682,-0.232 1.38394,-0.34961 2.08594,-0.34961c3.584,0 6.5,2.916 6.5,6.5c0,3.584 -2.916,6.5 -6.5,6.5h-20.5c-2.757,0 -5,-2.243 -5,-5c0,-2.572 2.00636,-4.75952 4.56836,-4.97852c0.269,-0.023 0.47103,-0.25344 0.45703,-0.52344c-0.32,-5.096 3.78461,-9.49805 8.97461,-9.49805z"></path></g></g></svg>