<svg version="1.1" xmlns="http://www.w3.org/2000/svg" xmlns:xlink="http://www.w3.org/1999/xlink" width="50px" height="50px" viewBox="0,0,256,256"><g fill="#ffffff" fill-rule="nonzero" stroke="none" stroke-width="1" stroke-linecap="butt" stroke-linejoin="miter" stroke-miterlimit="10" stroke-dasharray="" stroke-dashoffset="0" font-family="none" font-weight="none" font-size="none" text-anchor="none" style="mix-blend-mode: normal"><g transform="scale(5.12,5.12)"><path d="M34.0332,4.03125c-0.289,-0.029 -0.51801,0.18008 -0.54102,0.45508l-0.33203,3.79492c-0.025,0.275 0.17912,0.51702 0.45313,0.54102c0.016,0.002 0.02992,0.00195 0.04492,0.00195c0.256,0 0.47605,-0.19703 0.49805,-0.45703l0.33203,-3.79492c0.025,-0.275 -0.18108,-0.51702 -0.45508,-0.54102zM22.82617,7.05273c-0.12588,-0.02212 -0.2615,0.00303 -0.375,0.08203c-0.226,0.158 -0.28009,0.46931 -0.12109,0.69531l2.18555,3.12109c0.097,0.139 0.2512,0.21289 0.4082,0.21289c0.099,0 0.19911,-0.02884 0.28711,-0.08984c0.226,-0.158 0.28009,-0.46931 0.12109,-0.69531l-2.18359,-3.12109c-0.079,-0.1135 -0.19639,-0.18295 -0.32227,-0.20508zM44.54688,8.95313c-0.128,0 -0.25602,0.04898 -0.35352,0.14648l-2.69336,2.69336c-0.195,0.195 -0.195,0.51203 0,0.70703c0.098,0.097 0.22552,0.14648 0.35352,0.14648c0.127,0 0.25552,-0.04848 0.35352,-0.14648l2.69336,-2.69336c0.195,-0.195 0.195,-0.51203 0,-0.70703c-0.0975,-0.0975 -0.22552,-0.14648 -0.35352,-0.14648zM32.5,13c-3.50362,0 -6.5141,2.12231 -7.80469,5.15625c-1.45542,-0.74226 -3.08973,-1.15625 -4.79492,-1.15625c-5.669,0 -10.33847,4.49923 -10.60547,10.11523c-3.048,0.57 -5.29492,3.24277 -5.29492,6.38477c0,3.584 2.916,6.5 6.5,6.5h21.5c4.411,0 8,-3.589 8,-8c0,-1.69607 -0.53551,-3.26679 -1.43945,-4.5625c1.50175,-1.53667 2.43945,-3.62571 2.43945,-5.9375c0,-4.69 -3.81,-8.5 -8.5,-8.5zM32.5,14c4.14,0 7.5,3.36 7.5,7.5c0,2.00165 -0.79057,3.81189 -2.07227,5.14844c-1.46511,-1.6214 -3.57568,-2.64844 -5.92773,-2.64844c-0.684,0 -1.36425,0.08863 -2.03125,0.26563c-0.78555,-2.35885 -2.36718,-4.30958 -4.38477,-5.5957c1.1178,-2.73289 3.78313,-4.66992 6.91602,-4.66992zM19.90039,18c4.289,0 8.09491,2.88748 9.25391,7.02148c0.037,0.132 0.12509,0.24264 0.24609,0.30664c0.122,0.064 0.26353,0.0772 0.39453,0.0332c0.719,-0.239 1.46008,-0.36133 2.20508,-0.36133c3.859,0 7,3.14 7,7c0,3.86 -3.141,7 -7,7h-21.5c-3.032,0 -5.5,-2.467 -5.5,-5.5c0,-2.782 2.08275,-5.12608 4.84375,-5.45508c0.25,-0.03 0.43745,-0.24314 0.43945,-0.49414c0.001,-0.042 0.00095,-0.083 0.00195,-0.125c0.106,-5.209 4.39323,-9.42578 9.61523,-9.42578zM49.42773,19.50977l-3.79687,0.33203c-0.274,0.024 -0.47713,0.26797 -0.45312,0.54297c0.022,0.261 0.24009,0.45703 0.49609,0.45703c0.014,0 0.02892,0.00005 0.04492,-0.00195l3.79688,-0.33203c0.274,-0.024 0.47713,-0.26797 0.45313,-0.54297c-0.023,-0.276 -0.26102,-0.48908 -0.54102,-0.45508zM43.24805,28.58398c-0.126,0.02187 -0.24327,0.09108 -0.32227,0.20508c-0.159,0.226 -0.10295,0.53631 0.12305,0.69531l3.12109,2.1875c0.088,0.061 0.18516,0.08984 0.28516,0.08984c0.157,0 0.31416,-0.07389 0.41016,-0.21289c0.159,-0.226 0.10295,-0.53827 -0.12305,-0.69727l-3.12109,-2.18555c-0.113,-0.0785 -0.24705,-0.10391 -0.37305,-0.08203z"></path></g></g></svg>