<svg version="1.1" xmlns="http://www.w3.org/2000/svg" xmlns:xlink="http://www.w3.org/1999/xlink" width="50px" height="50px" viewBox="0,0,256,256"><g fill="#ffffff" fill-rule="nonzero" stroke="none" stroke-width="1" stroke-linecap="butt" stroke-linejoin="miter" stroke-miterlimit="10" stroke-dasharray="" stroke-dashoffset="0" font-family="none" font-weight="none" font-size="none" text-anchor="none" style="mix-blend-mode: normal"><g transform="scale(5.12,5.12)"><path d="M25,7c-0.276,0 -0.5,0.224 -0.5,0.5v4.52539c-2.62323,0.08424 -5.08958,0.81109 -7.25,2.05078l-2.31641,-4.01172c-0.138,-0.241 -0.44559,-0.32159 -0.68359,-0.18359c-0.24,0.138 -0.32259,0.44459 -0.18359,0.68359l2.33398,4.04492c-2.07663,1.37215 -3.8202,3.22394 -5.0957,5.4043l-4.24023,-2.44727c-0.239,-0.136 -0.54559,-0.05641 -0.68359,0.18359c-0.138,0.239 -0.05541,0.54559 0.18359,0.68359l4.25391,2.45508c-1.08467,2.14007 -1.72007,4.55234 -1.79492,7.11133h-4.52344c-0.276,0 -0.5,0.224 -0.5,0.5c0,0.276 0.224,0.5 0.5,0.5h5c0.069,0 0.1355,-0.01375 0.19531,-0.03906c0.17944,-0.07594 0.30469,-0.25394 0.30469,-0.46094c0,-8.547 6.729,-15.5 15,-15.5c8.271,0 15,6.953 15,15.5c0,0.276 0.224,0.5 0.5,0.5h5c0.276,0 0.5,-0.224 0.5,-0.5c0,-0.276 -0.224,-0.5 -0.5,-0.5h-4.52344c-0.07485,-2.55898 -0.71025,-4.97126 -1.79492,-7.11133l4.25391,-2.45508c0.24,-0.138 0.32259,-0.44459 0.18359,-0.68359c-0.138,-0.24 -0.44559,-0.32159 -0.68359,-0.18359l-4.24023,2.44727c-1.27551,-2.18036 -3.01907,-4.03215 -5.0957,-5.4043l2.33398,-4.04492c0.138,-0.239 0.05541,-0.54559 -0.18359,-0.68359c-0.238,-0.137 -0.54559,-0.05641 -0.68359,0.18359l-2.31641,4.01172c-2.16042,-1.23969 -4.62677,-1.96654 -7.25,-2.05078v-4.52539c0,-0.276 -0.224,-0.5 -0.5,-0.5zM8.5,34c-0.276,0 -0.5,0.224 -0.5,0.5c0,0.276 0.224,0.5 0.5,0.5h33c0.276,0 0.5,-0.224 0.5,-0.5c0,-0.276 -0.224,-0.5 -0.5,-0.5zM13.5,40c-0.276,0 -0.5,0.224 -0.5,0.5c0,0.276 0.224,0.5 0.5,0.5h23c0.276,0 0.5,-0.224 0.5,-0.5c0,-0.276 -0.224,-0.5 -0.5,-0.5z"></path></g></g></svg>