<svg version="1.1" xmlns="http://www.w3.org/2000/svg" xmlns:xlink="http://www.w3.org/1999/xlink" width="50px" height="50px" viewBox="0,0,256,256"><g fill="#ffffff" fill-rule="nonzero" stroke="none" stroke-width="1" stroke-linecap="butt" stroke-linejoin="miter" stroke-miterlimit="10" stroke-dasharray="" stroke-dashoffset="0" font-family="none" font-weight="none" font-size="none" text-anchor="none" style="mix-blend-mode: normal"><g transform="scale(5.12,5.12)"><path d="M14.107,29h-1.167c-1.201,-2.159 -1.892,-4.639 -1.892,-7.278c0,-7.225 5.127,-13.276 11.934,-14.706c0.244,-0.051 0.449,0.074 0.545,0.258c0.087,0.167 0.085,0.382 -0.056,0.559c-1.694,2.12 -2.699,4.796 -2.699,7.701c0,5.304 3.023,9.132 6.833,11.059c1.671,0.849 3.554,1.317 5.543,1.317c2.126,0 4.211,-0.45 6.356,-1.759c0.169,-0.103 0.393,-0.095 0.557,0.022c0.18,0.128 0.26,0.327 0.185,0.561c-0.221,0.692 -0.706,1.68 -1.032,2.266h-5.214c-3,0 -4.984,-0.57 -6.847,-1.516c-4.621,-2.337 -7.381,-6.805 -7.381,-11.951c0,-2.58 0.726,-5.05 2.109,-7.199c-5.837,1.82 -9.833,7.194 -9.833,13.387c0,2.667 0.762,5.154 2.059,7.279zM41.5,35h-33c-0.276,0 -0.5,-0.224 -0.5,-0.5c0,-0.276 0.224,-0.5 0.5,-0.5h33c0.276,0 0.5,0.224 0.5,0.5c0,0.276 -0.224,0.5 -0.5,0.5zM36.5,41h-23c-0.276,0 -0.5,-0.224 -0.5,-0.5c0,-0.276 0.224,-0.5 0.5,-0.5h23c0.276,0 0.5,0.224 0.5,0.5c0,0.276 -0.224,0.5 -0.5,0.5z"></path></g></g></svg>