<svg version="1.1" xmlns="http://www.w3.org/2000/svg" xmlns:xlink="http://www.w3.org/1999/xlink" width="50px" height="50px" viewBox="0,0,256,256"><g fill="#ffffff" fill-rule="nonzero" stroke="none" stroke-width="1" stroke-linecap="butt" stroke-linejoin="miter" stroke-miterlimit="10" stroke-dasharray="" stroke-dashoffset="0" font-family="none" font-weight="none" font-size="none" text-anchor="none" style="mix-blend-mode: normal"><g transform="scale(5.12,5.12)"><path d="M12.5,42c-0.062,0 -0.125,-0.011 -0.186,-0.036c-0.257,-0.103 -0.381,-0.394 -0.278,-0.65l2,-5c0.103,-0.256 0.395,-0.381 0.649,-0.279c0.257,0.103 0.381,0.394 0.278,0.65l-2,5c-0.077,0.196 -0.265,0.315 -0.463,0.315zM23.5,42c-0.062,0 -0.125,-0.011 -0.186,-0.036c-0.257,-0.103 -0.381,-0.394 -0.278,-0.65l2,-5c0.103,-0.256 0.393,-0.381 0.649,-0.279c0.256,0.102 0.381,0.394 0.278,0.65l-2,5c-0.077,0.196 -0.265,0.315 -0.463,0.315zM34.5,42c-0.062,0 -0.125,-0.011 -0.186,-0.036c-0.257,-0.103 -0.381,-0.394 -0.278,-0.65l2,-5c0.103,-0.256 0.394,-0.381 0.649,-0.279c0.257,0.103 0.381,0.394 0.278,0.65l-2,5c-0.077,0.196 -0.265,0.315 -0.463,0.315zM35.91,33c-0.038,0.01 -0.077,0 -0.117,0h-23.586c-0.024,0 -0.17,0 -0.207,0c-3.859,0 -7,-3.14 -7,-7c0,-3.499 2.624,-6.461 6.05,-6.929c0.476,-6.242 5.644,-11.071 11.95,-11.071c4.785,0 9.046,2.792 10.97,7.148c5.648,-1.033 10.6,3.366 10.6,8.852c-0.001,4.876 -3.796,8.819 -8.66,9zM12.308,32h23.384c0.033,0 0.06,0.001 0.09,0c4.367,-0.115 7.788,-3.635 7.788,-8c0,-4.911 -4.444,-8.845 -9.533,-7.846c-0.085,0.017 -0.171,0.035 -0.257,0.054c-0.235,0.058 -0.483,-0.072 -0.575,-0.301c-1.685,-4.196 -5.691,-6.907 -10.205,-6.907c-5.837,0 -10.608,4.513 -10.964,10.315c-0.005,0.076 -0.009,0.152 -0.012,0.229c-0.005,0.127 -0.058,0.242 -0.141,0.327c-0.083,0.086 -0.196,0.142 -0.323,0.151c-0.063,0.005 -0.126,0.01 -0.189,0.017c-3.027,0.317 -5.371,2.899 -5.371,5.961c0,3.309 2.691,6 6,6c0.007,0 0.27,-0.008 0.308,0z"></path></g></g></svg>