<svg version="1.1" xmlns="http://www.w3.org/2000/svg" xmlns:xlink="http://www.w3.org/1999/xlink" width="50px" height="50px" viewBox="0,0,256,256"><g fill="#ffffff" fill-rule="nonzero" stroke="none" stroke-width="1" stroke-linecap="butt" stroke-linejoin="miter" stroke-miterlimit="10" stroke-dasharray="" stroke-dashoffset="0" font-family="none" font-weight="none" font-size="none" text-anchor="none" style="mix-blend-mode: normal"><g transform="scale(5.12,5.12)"><path d="M23.5,6c-5.628,0 -10.23528,4.45058 -10.48828,10.01758c-3.357,0.251 -6.01172,3.06342 -6.01172,6.48242c0,3.584 2.916,6.5 6.5,6.5h21.5c4.411,0 8,-3.589 8,-8c0,-4.919 -4.48673,-8.8598 -9.55273,-7.8418c-1.424,-4.239 -5.44727,-7.1582 -9.94727,-7.1582zM23.5,7c4.215,0 7.96795,2.83172 9.12695,6.88672c0.075,0.262 0.34547,0.41466 0.60547,0.34766c4.618,-1.198 8.76758,2.33162 8.76758,6.76563c0,3.86 -3.14,7 -7,7h-21.5c-3.033,0 -5.5,-2.467 -5.5,-5.5c0,-3.033 2.467,-5.5 5.5,-5.5c0.276,0 0.5,-0.224 0.5,-0.5c0,-5.238 4.262,-9.5 9.5,-9.5zM14.5,32c-0.276,0 -0.5,0.224 -0.5,0.5v2.63281l-2.28125,-1.31641c-0.239,-0.139 -0.54559,-0.05541 -0.68359,0.18359c-0.138,0.239 -0.05541,0.54559 0.18359,0.68359l2.2793,1.31641l-2.2793,1.31641c-0.239,0.138 -0.32159,0.44459 -0.18359,0.68359c0.093,0.161 0.26059,0.25 0.43359,0.25c0.085,0 0.172,-0.02041 0.25,-0.06641l2.28125,-1.31641v2.63281c0,0.276 0.224,0.5 0.5,0.5c0.276,0 0.5,-0.224 0.5,-0.5v-2.63281l2.28125,1.31641c0.079,0.046 0.165,0.06641 0.25,0.06641c0.173,0 0.34159,-0.09 0.43359,-0.25c0.138,-0.239 0.05541,-0.54559 -0.18359,-0.68359l-2.28125,-1.31641l2.2793,-1.31641c0.239,-0.138 0.32159,-0.44459 0.18359,-0.68359c-0.139,-0.24 -0.44659,-0.32259 -0.68359,-0.18359l-2.2793,1.31641v-2.63281c0,-0.276 -0.224,-0.5 -0.5,-0.5zM34.5,32c-0.276,0 -0.5,0.224 -0.5,0.5v2.63281l-2.28125,-1.31641c-0.24,-0.139 -0.54559,-0.05541 -0.68359,0.18359c-0.138,0.239 -0.05541,0.54559 0.18359,0.68359l2.2793,1.31641l-2.2793,1.31641c-0.239,0.138 -0.32159,0.44459 -0.18359,0.68359c0.093,0.161 0.26059,0.25 0.43359,0.25c0.085,0 0.172,-0.02041 0.25,-0.06641l2.28125,-1.31641v2.63281c0,0.276 0.224,0.5 0.5,0.5c0.276,0 0.5,-0.224 0.5,-0.5v-2.63281l2.28125,1.31641c0.079,0.046 0.165,0.06641 0.25,0.06641c0.173,0 0.34159,-0.09 0.43359,-0.25c0.138,-0.239 0.05541,-0.54559 -0.18359,-0.68359l-2.28125,-1.31641l2.2793,-1.31641c0.239,-0.138 0.32159,-0.44459 0.18359,-0.68359c-0.139,-0.24 -0.44659,-0.32259 -0.68359,-0.18359l-2.2793,1.31641v-2.63281c0,-0.276 -0.224,-0.5 -0.5,-0.5zM24.5,37c-0.276,0 -0.5,0.224 -0.5,0.5v2.63281l-2.28125,-1.31641c-0.239,-0.138 -0.54559,-0.05541 -0.68359,0.18359c-0.138,0.239 -0.05541,0.54559 0.18359,0.68359l2.2793,1.31641l-2.2793,1.31641c-0.239,0.138 -0.32159,0.44459 -0.18359,0.68359c0.093,0.161 0.26059,0.25 0.43359,0.25c0.085,0 0.172,-0.02041 0.25,-0.06641l2.28125,-1.31641v2.63281c0,0.276 0.224,0.5 0.5,0.5c0.276,0 0.5,-0.224 0.5,-0.5v-2.63281l2.28125,1.31641c0.079,0.046 0.165,0.06641 0.25,0.06641c0.173,0 0.34159,-0.09 0.43359,-0.25c0.138,-0.239 0.05541,-0.54559 -0.18359,-0.68359l-2.28125,-1.31641l2.2793,-1.31641c0.239,-0.138 0.32159,-0.44459 0.18359,-0.68359c-0.139,-0.24 -0.44659,-0.32159 -0.68359,-0.18359l-2.2793,1.31641v-2.63281c0,-0.276 -0.224,-0.5 -0.5,-0.5z"></path></g></g></svg>