<svg version="1.1" xmlns="http://www.w3.org/2000/svg" xmlns:xlink="http://www.w3.org/1999/xlink" width="50px" height="50px" viewBox="0,0,256,256"><g fill="#ffffff" fill-rule="nonzero" stroke="none" stroke-width="1" stroke-linecap="butt" stroke-linejoin="miter" stroke-miterlimit="10" stroke-dasharray="" stroke-dashoffset="0" font-family="none" font-weight="none" font-size="none" text-anchor="none" style="mix-blend-mode: normal"><g transform="scale(5.12,5.12)"><path d="M34.0332,1.03125c-0.293,-0.026 -0.51702,0.18008 -0.54102,0.45508l-0.33203,3.79492c-0.025,0.275 0.17912,0.51702 0.45313,0.54102c0.016,0.002 0.02992,0.00195 0.04492,0.00195c0.256,0 0.47605,-0.19703 0.49805,-0.45703l0.33203,-3.79492c0.025,-0.275 -0.18108,-0.51702 -0.45508,-0.54102zM22.82617,4.05273c-0.12588,-0.022 -0.261,0.00353 -0.375,0.08203c-0.226,0.158 -0.28009,0.46931 -0.12109,0.69531l2.18555,3.12109c0.097,0.139 0.2512,0.21289 0.4082,0.21289c0.099,0 0.19911,-0.02884 0.28711,-0.08984c0.226,-0.158 0.28009,-0.46931 0.12109,-0.69531l-2.18359,-3.12109c-0.0785,-0.1135 -0.19639,-0.18308 -0.32227,-0.20508zM44.54688,5.95313c-0.128,0 -0.25602,0.04898 -0.35352,0.14648l-2.69336,2.69336c-0.195,0.195 -0.195,0.51203 0,0.70703c0.098,0.097 0.22552,0.14648 0.35352,0.14648c0.127,0 0.25552,-0.04848 0.35352,-0.14648l2.69336,-2.69336c0.195,-0.195 0.195,-0.51203 0,-0.70703c-0.0975,-0.0975 -0.22552,-0.14648 -0.35352,-0.14648zM32.5,10c-3.50362,0 -6.5141,2.12231 -7.80469,5.15625c-1.45542,-0.74226 -3.08973,-1.15625 -4.79492,-1.15625c-5.669,0 -10.33847,4.49923 -10.60547,10.11523c-3.048,0.57 -5.29492,3.24277 -5.29492,6.38477c0,3.584 2.916,6.5 6.5,6.5h21.5c4.411,0 8,-3.589 8,-8c0,-1.69607 -0.53551,-3.26679 -1.43945,-4.5625c1.50175,-1.53667 2.43945,-3.62571 2.43945,-5.9375c0,-4.69 -3.81,-8.5 -8.5,-8.5zM32.5,11c4.14,0 7.5,3.36 7.5,7.5c0,2.00165 -0.79057,3.81189 -2.07227,5.14844c-1.46511,-1.6214 -3.57568,-2.64844 -5.92773,-2.64844c-0.684,0 -1.36425,0.08863 -2.03125,0.26563c-0.78555,-2.35885 -2.36718,-4.30958 -4.38477,-5.5957c1.1178,-2.73289 3.78313,-4.66992 6.91602,-4.66992zM19.90039,15c4.289,0 8.09491,2.88748 9.25391,7.02148c0.037,0.132 0.12509,0.24264 0.24609,0.30664c0.122,0.064 0.26353,0.0772 0.39453,0.0332c0.719,-0.239 1.46008,-0.36133 2.20508,-0.36133c3.859,0 7,3.14 7,7c0,3.86 -3.141,7 -7,7h-21.5c-3.032,0 -5.5,-2.467 -5.5,-5.5c0,-2.782 2.0818,-5.12608 4.8418,-5.45508c0.228,-0.027 0.40455,-0.20573 0.43555,-0.42773c0.003,-0.022 0.00586,-0.04441 0.00586,-0.06641c0.039,-5.267 4.35319,-9.55078 9.61719,-9.55078zM49.42773,16.50977l-3.79687,0.33203c-0.274,0.024 -0.47713,0.26797 -0.45312,0.54297c0.022,0.261 0.24009,0.45703 0.49609,0.45703c0.014,0 0.02892,0.00005 0.04492,-0.00195l3.79688,-0.33203c0.274,-0.024 0.47713,-0.26797 0.45313,-0.54297c-0.024,-0.276 -0.26402,-0.48608 -0.54102,-0.45508zM43.24805,25.58203c-0.126,0.022 -0.24377,0.09303 -0.32227,0.20703c-0.159,0.226 -0.10295,0.53631 0.12305,0.69531l3.12109,2.1875c0.088,0.061 0.18516,0.08984 0.28516,0.08984c0.157,0 0.31416,-0.07389 0.41016,-0.21289c0.159,-0.226 0.10295,-0.53827 -0.12305,-0.69727l-3.12109,-2.18555c-0.1135,-0.079 -0.24705,-0.10599 -0.37305,-0.08398zM11.49023,40c-0.19411,0.00413 -0.37783,0.12245 -0.45508,0.31445l-1.59766,3.99414c-0.103,0.256 0.0223,0.54739 0.2793,0.65039c0.061,0.025 0.12355,0.03516 0.18555,0.03516c0.199,0 0.38589,-0.11845 0.46289,-0.31445l1.59766,-3.99414c0.103,-0.256 -0.02034,-0.54739 -0.27734,-0.65039c-0.0635,-0.0255 -0.13061,-0.03653 -0.19531,-0.03516zM22.49023,40c-0.19425,0.00413 -0.37783,0.12245 -0.45508,0.31445l-1.59766,3.99414c-0.103,0.256 0.0223,0.54739 0.2793,0.65039c0.061,0.025 0.12355,0.03516 0.18555,0.03516c0.199,0 0.38589,-0.11845 0.46289,-0.31445l1.59766,-3.99414c0.103,-0.256 -0.02034,-0.54739 -0.27734,-0.65039c-0.06375,-0.0255 -0.13056,-0.03653 -0.19531,-0.03516zM33.49023,40c-0.19425,0.00413 -0.37783,0.12245 -0.45508,0.31445l-1.59766,3.99414c-0.103,0.256 0.0223,0.54739 0.2793,0.65039c0.061,0.025 0.12355,0.03516 0.18555,0.03516c0.199,0 0.38589,-0.11845 0.46289,-0.31445l1.59766,-3.99414c0.103,-0.256 -0.02034,-0.54739 -0.27734,-0.65039c-0.06375,-0.0255 -0.13056,-0.03653 -0.19531,-0.03516z"></path></g></g></svg>