<svg version="1.1" xmlns="http://www.w3.org/2000/svg" xmlns:xlink="http://www.w3.org/1999/xlink" width="50px" height="50px" viewBox="0,0,256,256"><g fill="#ffffff" fill-rule="nonzero" stroke="none" stroke-width="1" stroke-linecap="butt" stroke-linejoin="miter" stroke-miterlimit="10" stroke-dasharray="" stroke-dashoffset="0" font-family="none" font-weight="none" font-size="none" text-anchor="none" style="mix-blend-mode: normal"><g transform="scale(5.12,5.12)"><path d="M34.52539,7.5c-0.276,0 -0.5,0.224 -0.5,0.5v5.69922l-4.99219,-2.85352c-0.239,-0.137 -0.54364,-0.05645 -0.68164,0.18555c-0.136,0.24 -0.05445,0.54659 0.18555,0.68359l4.98047,2.8457l-4.98047,2.8457c-0.241,0.137 -0.3245,0.44164 -0.1875,0.68164c0.093,0.162 0.26255,0.25195 0.43555,0.25195c0.085,0 0.17005,-0.02141 0.24805,-0.06641l4.99219,-2.85156v5.69922c0,0.276 0.224,0.5 0.5,0.5c0.277,0 0.5,-0.224 0.5,-0.5v-5.69922l4.99219,2.85156c0.078,0.045 0.16305,0.06641 0.24805,0.06641c0.172,0 0.34155,-0.08995 0.43555,-0.25195c0.136,-0.24 0.0525,-0.54464 -0.1875,-0.68164l-4.98047,-2.8457l4.98047,-2.8457c0.241,-0.137 0.32255,-0.44359 0.18555,-0.68359c-0.139,-0.242 -0.44564,-0.32255 -0.68164,-0.18555l-4.99219,2.85352v-5.69922c0,-0.276 -0.224,-0.5 -0.5,-0.5zM13.54883,9.5332c-0.06459,-0.0087 -0.13172,-0.00458 -0.19922,0.01367c-0.267,0.073 -0.42356,0.34728 -0.35156,0.61328l1.28906,4.72656l-4.72656,-1.28906c-0.267,-0.073 -0.54323,0.08556 -0.61523,0.35156c-0.072,0.266 0.08456,0.54028 0.35156,0.61328l4.74023,1.29297l-3.44336,3.44336c-0.195,0.195 -0.195,0.51203 0,0.70703c0.098,0.097 0.22552,0.14453 0.35352,0.14453c0.128,0 0.25651,-0.04653 0.35351,-0.14453l3.44336,-3.44336l1.29297,4.74023c0.06,0.223 0.26242,0.36914 0.48242,0.36914c0.042,0 0.08781,-0.00653 0.13281,-0.01953c0.267,-0.073 0.42356,-0.34728 0.35156,-0.61328l-1.28906,-4.72656l4.72461,1.28906c0.044,0.013 0.08786,0.01758 0.13086,0.01758c0.22,0 0.42338,-0.14519 0.48438,-0.36719c0.072,-0.266 -0.08456,-0.54223 -0.35156,-0.61523l-4.74023,-1.29297l3.44141,-3.44141c0.195,-0.195 0.195,-0.51203 0,-0.70703c-0.195,-0.195 -0.51203,-0.195 -0.70703,0l-3.43945,3.43945l-1.29297,-4.73828c-0.054,-0.1995 -0.22223,-0.33717 -0.41602,-0.36328zM12.77148,27.19336c-0.19458,0.00769 -0.37572,0.13147 -0.44922,0.32422l-1.41406,3.73828l-2.56836,-3.11328c-0.176,-0.214 -0.48913,-0.24336 -0.70313,-0.06836c-0.213,0.176 -0.24436,0.49208 -0.06836,0.70508l2.55859,3.10156l-3.9707,0.62891c-0.272,0.043 -0.45902,0.30027 -0.41602,0.57227c0.039,0.247 0.25119,0.42188 0.49219,0.42188c0.027,0 0.05408,-0.00186 0.08008,-0.00586l3.98438,-0.63281l-1.41406,3.73828c-0.098,0.258 0.03202,0.54653 0.29102,0.64453c0.058,0.022 0.11678,0.0332 0.17578,0.0332c0.202,0 0.39175,-0.12422 0.46875,-0.32422l1.41406,-3.73828l2.56836,3.11328c0.099,0.12 0.24077,0.18359 0.38477,0.18359c0.112,0 0.22436,-0.03923 0.31836,-0.11523c0.213,-0.176 0.24241,-0.49012 0.06641,-0.70312l-2.55859,-3.10352l3.9707,-0.62891c0.272,-0.043 0.45902,-0.30027 0.41602,-0.57227c-0.044,-0.274 -0.30527,-0.45902 -0.57227,-0.41602l-3.98242,0.63281l1.41406,-3.73828c0.098,-0.258 -0.03201,-0.54653 -0.29101,-0.64453c-0.06425,-0.02475 -0.13045,-0.03577 -0.19531,-0.0332zM36.58398,31.72461c-0.291,-0.032 -0.52373,0.16641 -0.55273,0.44141l-0.26367,2.37695l-1.95508,-1.42383c-0.222,-0.161 -0.53722,-0.11462 -0.69922,0.10938c-0.162,0.223 -0.11362,0.53622 0.10938,0.69922l1.94336,1.41602l-2.20508,0.95508c-0.254,0.11 -0.37072,0.4052 -0.26172,0.6582c0.082,0.188 0.26598,0.30078 0.45898,0.30078c0.067,0 0.13522,-0.01302 0.19922,-0.04102l2.21875,-0.96094l-0.26367,2.37695c-0.031,0.274 0.16741,0.52173 0.44141,0.55273c0.02,0.002 0.03764,0.00195 0.05664,0.00195c0.251,0 0.46709,-0.18831 0.49609,-0.44531l0.26367,-2.375l1.95117,1.42187c0.089,0.065 0.19192,0.09766 0.29492,0.09766c0.155,0 0.3073,-0.07203 0.4043,-0.20703c0.162,-0.223 0.11362,-0.53622 -0.10937,-0.69922l-1.94141,-1.41406l2.20508,-0.95508c0.254,-0.11 0.37072,-0.4052 0.26172,-0.6582c-0.11,-0.253 -0.4072,-0.36777 -0.6582,-0.25977l-2.2168,0.96094l0.26367,-2.37891c0.031,-0.274 -0.16741,-0.51978 -0.44141,-0.55078zM21.89453,36.72266c-0.06461,0.0015 -0.13136,0.01497 -0.19336,0.04297c-0.252,0.114 -0.363,0.41011 -0.25,0.66211l1.27539,2.82813l-3.11914,-0.29883c-0.275,-0.028 -0.51792,0.17422 -0.54492,0.44922c-0.027,0.274 0.17522,0.51892 0.44922,0.54492l3.10547,0.29883l-1.83398,2.52539c-0.162,0.224 -0.11267,0.53622 0.11133,0.69922c0.089,0.064 0.18997,0.09375 0.29297,0.09375c0.155,0 0.3073,-0.07008 0.4043,-0.20508l1.8418,-2.53711l1.27734,2.83008c0.084,0.185 0.26508,0.29492 0.45508,0.29492c0.069,0 0.13908,-0.01492 0.20508,-0.04492c0.252,-0.114 0.363,-0.41011 0.25,-0.66211l-1.27344,-2.82812l3.11914,0.30078c0.017,0.002 0.03183,0.00195 0.04883,0.00195c0.254,0 0.47205,-0.19412 0.49805,-0.45312c0.027,-0.274 -0.17717,-0.51892 -0.45117,-0.54492l-3.10937,-0.29883l1.83398,-2.52539c0.162,-0.224 0.11463,-0.53622 -0.10937,-0.69922c-0.223,-0.161 -0.53427,-0.11267 -0.69727,0.11133l-1.8418,2.53516l-1.27539,-2.82812c-0.08625,-0.189 -0.27492,-0.29747 -0.46875,-0.29297z"></path></g></g></svg>