<svg version="1.1" xmlns="http://www.w3.org/2000/svg" xmlns:xlink="http://www.w3.org/1999/xlink" width="50px" height="50px" viewBox="0,0,256,256"><g fill="#ffffff" fill-rule="nonzero" stroke="none" stroke-width="1" stroke-linecap="butt" stroke-linejoin="miter" stroke-miterlimit="10" stroke-dasharray="" stroke-dashoffset="0" font-family="none" font-weight="none" font-size="none" text-anchor="none" style="mix-blend-mode: normal"><g transform="scale(5.12,5.12)"><path d="M21.613,43.902c-3.576,0 -6.486,-2.91 -6.486,-6.486c0,-4.116 5.824,-12.779 6.072,-13.146c0.093,-0.138 0.253,-0.207 0.414,-0.207c0.161,0 0.321,0.069 0.414,0.207c0.248,0.367 6.072,9.03 6.072,13.146c0.001,3.576 -2.91,6.486 -6.486,6.486zM21.613,25.46c-1.343,2.077 -5.486,8.746 -5.486,11.955c0,3.025 2.461,5.486 5.486,5.486c3.025,0 5.486,-2.461 5.486,-5.486c0.001,-3.21 -4.143,-9.877 -5.486,-11.955zM36,28.96c-3.309,0 -6,-2.691 -6,-6c0,-3.793 5.357,-11.762 5.586,-12.1c0.093,-0.138 0.253,-0.207 0.414,-0.207c0.161,0 0.321,0.069 0.414,0.207c0.229,0.338 5.586,8.307 5.586,12.1c0,3.309 -2.691,6 -6,6zM36,12.052c-1.267,1.963 -5,7.997 -5,10.908c0,2.757 2.243,5 5,5c2.757,0 5,-2.243 5,-5c0,-2.913 -3.733,-8.945 -5,-10.908zM14,20.985c-2.757,0 -5,-2.243 -5,-5c0,-3.131 4.398,-9.674 4.586,-9.951c0.093,-0.137 0.253,-0.206 0.414,-0.206c0.161,0 0.321,0.069 0.414,0.207c0.188,0.277 4.586,6.819 4.586,9.95c0,2.757 -2.243,5 -5,5zM14,7.228c-1.099,1.712 -4,6.454 -4,8.757c0,2.206 1.794,4 4,4c2.206,0 4,-1.794 4,-4c0,-2.304 -2.901,-7.045 -4,-8.757z"></path></g></g></svg>