<svg version="1.1" xmlns="http://www.w3.org/2000/svg" xmlns:xlink="http://www.w3.org/1999/xlink" width="50px" height="50px" viewBox="0,0,256,256"><g fill="#ffffff" fill-rule="nonzero" stroke="none" stroke-width="1" stroke-linecap="butt" stroke-linejoin="miter" stroke-miterlimit="10" stroke-dasharray="" stroke-dashoffset="0" font-family="none" font-weight="none" font-size="none" text-anchor="none" style="mix-blend-mode: normal"><g transform="scale(5.12,5.12)"><path d="M25,6.90039c-0.276,0 -0.5,0.224 -0.5,0.5v5.35938l-3.1875,-2.54883c-0.217,-0.172 -0.53013,-0.13883 -0.70312,0.07617c-0.172,0.216 -0.13788,0.53012 0.07813,0.70313l3.8125,3.04883v4.31445c-0.08461,0.03005 -0.17077,0.05588 -0.25,0.10156l-4.54492,2.62305c-0.07918,0.04593 -0.14456,0.1076 -0.21289,0.16602l-3.73242,-2.15625l-0.73828,-4.82617c-0.041,-0.273 -0.30331,-0.46192 -0.57031,-0.41992c-0.273,0.041 -0.45997,0.29536 -0.41797,0.56836l0.61524,4.03711l-4.64063,-2.67969c-0.239,-0.137 -0.54559,-0.05541 -0.68359,0.18359c-0.138,0.239 -0.05541,0.54559 0.18359,0.68359l4.63867,2.67773l-3.80078,1.48633c-0.258,0.101 -0.3842,0.38948 -0.2832,0.64648c0.077,0.197 0.26484,0.31836 0.46484,0.31836c0.061,0 0.12359,-0.0102 0.18359,-0.0332l4.54883,-1.77734l3.73437,2.15625c-0.01652,0.08896 -0.03711,0.17738 -0.03711,0.26953v5.24414c0,0.09132 0.02082,0.17929 0.03711,0.26758l-3.73437,2.15625l-4.54883,-1.77734c-0.255,-0.1 -0.54549,0.02816 -0.64649,0.28516c-0.101,0.257 0.0252,0.54548 0.2832,0.64648l3.80078,1.48633l-4.64063,2.67969c-0.24,0.138 -0.32259,0.44459 -0.18359,0.68359c0.092,0.16 0.26159,0.25 0.43359,0.25c0.085,0 0.171,-0.02336 0.25,-0.06836l4.64258,-2.67969l-0.61524,4.03711c-0.042,0.273 0.14497,0.52636 0.41797,0.56836c0.025,0.004 0.05117,0.00586 0.07617,0.00586c0.242,0 0.45714,-0.17778 0.49414,-0.42578l0.73633,-4.82422l3.73437,-2.15625c0.06815,0.05809 0.13396,0.11838 0.21289,0.16406l4.54297,2.62305c0.07949,0.04576 0.16498,0.07342 0.25,0.10352v4.3125l-3.8125,3.04883c-0.216,0.173 -0.25013,0.48712 -0.07812,0.70313c0.173,0.216 0.48613,0.24917 0.70313,0.07617l3.1875,-2.54883v5.35938c0,0.276 0.224,0.5 0.5,0.5c0.276,0 0.5,-0.224 0.5,-0.5v-5.35937l3.1875,2.55078c0.093,0.073 0.2035,0.10938 0.3125,0.10938c0.146,0 0.29263,-0.0645 0.39063,-0.1875c0.172,-0.216 0.13788,-0.53012 -0.07812,-0.70312l-3.8125,-3.04883v-4.3125c0.08502,-0.03009 0.17051,-0.05775 0.25,-0.10352l4.54492,-2.62305c0.07907,-0.04586 0.14464,-0.10574 0.21289,-0.16406l3.73438,2.1543l0.73633,4.82617c0.037,0.248 0.25019,0.42578 0.49219,0.42578c0.025,0 0.05117,-0.00186 0.07617,-0.00586c0.273,-0.041 0.46192,-0.29536 0.41992,-0.56836l-0.61523,-4.03516l4.64063,2.67773c0.079,0.046 0.165,0.06836 0.25,0.06836c0.172,0 0.34159,-0.09 0.43359,-0.25c0.138,-0.239 0.05541,-0.54559 -0.18359,-0.68359l-4.64063,-2.67773l3.80078,-1.48828c0.258,-0.101 0.38616,-0.38948 0.28516,-0.64648c-0.1,-0.257 -0.39244,-0.38516 -0.64844,-0.28516l-4.55078,1.77734l-3.73242,-2.1543c0.01652,-0.08896 0.03711,-0.17738 0.03711,-0.26953v-5.24414c0,-0.09263 -0.02036,-0.18199 -0.03711,-0.27148l3.73242,-2.1543l4.54883,1.77734c0.06,0.023 0.12259,0.0332 0.18359,0.0332c0.2,0 0.38784,-0.12136 0.46484,-0.31836c0.101,-0.257 -0.0252,-0.54548 -0.2832,-0.64648l-3.80273,-1.48633l4.64258,-2.67969c0.24,-0.138 0.32259,-0.44459 0.18359,-0.68359c-0.138,-0.24 -0.44559,-0.32064 -0.68359,-0.18164l-4.64258,2.67969l0.61523,-4.03711c0.042,-0.273 -0.14497,-0.52636 -0.41797,-0.56836c-0.268,-0.042 -0.52931,0.14692 -0.57031,0.41992l-0.73633,4.82617l-3.73437,2.15625c-0.06823,-0.05819 -0.13385,-0.12027 -0.21289,-0.16602l-4.54297,-2.62305c-0.07923,-0.04569 -0.16539,-0.07151 -0.25,-0.10156v-4.31445l3.8125,-3.04883c0.216,-0.173 0.25013,-0.48712 0.07813,-0.70312c-0.171,-0.215 -0.48512,-0.24717 -0.70312,-0.07617l-3.1875,2.54883v-5.35938c0,-0.276 -0.224,-0.5 -0.5,-0.5zM25,19.25586c0.087,0 0.173,0.02141 0.25,0.06641l4.54297,2.62109c0.155,0.09 0.25,0.25755 0.25,0.43555v5.24414c0,0.178 -0.096,0.34459 -0.25,0.43359l-4.54297,2.62305c-0.154,0.089 -0.346,0.089 -0.5,0l-4.54297,-2.62305c-0.155,-0.09 -0.25,-0.25559 -0.25,-0.43359v-5.24414c0,-0.178 0.096,-0.34459 0.25,-0.43359l4.54297,-2.62305c0.077,-0.045 0.163,-0.06641 0.25,-0.06641z"></path></g></g></svg>