<svg version="1.1" xmlns="http://www.w3.org/2000/svg" xmlns:xlink="http://www.w3.org/1999/xlink" width="50px" height="50px" viewBox="0,0,256,256"><g fill="#ffffff" fill-rule="nonzero" stroke="none" stroke-width="1" stroke-linecap="butt" stroke-linejoin="miter" stroke-miterlimit="10" stroke-dasharray="" stroke-dashoffset="0" font-family="none" font-weight="none" font-size="none" text-anchor="none" style="mix-blend-mode: normal"><g transform="scale(5.12,5.12)"><path d="M23,8c-6.31,0 -11.46922,4.83031 -11.94922,11.07031c-3.43,0.47 -6.05078,3.42969 -6.05078,6.92969c0,3.86 3.14,7 7,7h0.21094h5.87891c0,-0.15 0.01378,-0.30994 0.05078,-0.46094c0.033,-0.134 0.11914,-0.53906 0.11914,-0.53906h-5.94922c-0.04,-0.01 -0.30055,0 -0.31055,0c-3.31,0 -6,-2.69 -6,-6c0,-3.044 2.30769,-5.60508 5.30469,-5.95508c0.084,-0.01 0.16986,-0.01939 0.25586,-0.02539c0.125,-0.01 0.23831,-0.06539 0.32031,-0.15039c0.083,-0.085 0.13367,-0.20008 0.13867,-0.33008c0.003,-0.075 0.00672,-0.14961 0.01172,-0.22461c0.361,-5.802 5.13375,-10.31445 10.96875,-10.31445c4.51,0 8.51922,2.71016 10.19922,6.91016c0.1,0.23 0.34008,0.36078 0.58008,0.30078c0.085,-0.02 0.17086,-0.03964 0.25586,-0.05664c5.084,-1.003 9.53516,2.9377 9.53516,7.8457c0,4.36 -3.42102,7.87023 -7.79102,7.99023c-0.03,0 -0.05984,-0.00023 -0.08984,0.00977h-5.78906c-0.02,0.21 -0.08069,0.41837 -0.17969,0.60938c-0.051,0.097 -0.11817,0.27262 -0.20117,0.39063h6.26953c0.04,0 0.08109,0.00023 0.12109,-0.00977c4.86,-0.19 8.66016,-4.11023 8.66016,-8.99023c0,-5.49 -4.94961,-9.87961 -10.59961,-8.84961c-1.92,-4.36 -6.1807,-7.15039 -10.9707,-7.15039zM21.75,24c-0.36,0 -0.68,0.24961 -0.75,0.59961l-1.89062,8.16016c-0.14,0.63 0.33047,1.23047 0.98047,1.23047h3.38086l-1.00977,7.83008c-0.06,0.49 0.31898,0.79883 0.70898,0.79883c0.23,0 0.46961,-0.11867 0.59961,-0.38867l5.06055,-10.07031c0.26,-0.53 -0.1207,-1.16016 -0.7207,-1.16016h-3.91016l2.46094,-5.89062c0.22,-0.53 -0.17023,-1.10937 -0.74023,-1.10937zM14.49023,36c-0.19425,0.00413 -0.37783,0.12245 -0.45508,0.31445l-2,5c-0.103,0.256 0.0223,0.54739 0.2793,0.65039c0.061,0.025 0.12355,0.03516 0.18555,0.03516c0.198,0 0.38589,-0.11845 0.46289,-0.31445l2,-5c0.103,-0.256 -0.02034,-0.54739 -0.27734,-0.65039c-0.06375,-0.0255 -0.13056,-0.03653 -0.19531,-0.03516zM36.49023,36c-0.19425,0.00413 -0.37783,0.12245 -0.45508,0.31445l-2,5c-0.103,0.256 0.0223,0.54739 0.2793,0.65039c0.061,0.025 0.12355,0.03516 0.18555,0.03516c0.198,0 0.38589,-0.11845 0.46289,-0.31445l2,-5c0.103,-0.256 -0.02034,-0.54739 -0.27734,-0.65039c-0.06375,-0.0255 -0.13056,-0.03653 -0.19531,-0.03516z"></path></g></g></svg>