<svg version="1.1" xmlns="http://www.w3.org/2000/svg" xmlns:xlink="http://www.w3.org/1999/xlink" width="50px" height="50px" viewBox="0,0,256,256"><g fill="#ffffff" fill-rule="nonzero" stroke="none" stroke-width="1" stroke-linecap="butt" stroke-linejoin="miter" stroke-miterlimit="10" stroke-dasharray="" stroke-dashoffset="0" font-family="none" font-weight="none" font-size="none" text-anchor="none" style="mix-blend-mode: normal"><g transform="scale(5.12,5.12)"><path d="M23,10c-6.31,0 -11.46922,4.83031 -11.94922,11.07031c-3.43,0.47 -6.05078,3.42969 -6.05078,6.92969c0,3.86 3.14,7 7,7h2.75977l0.23047,-1h-2.99023c-3.31,0 -6,-2.69 -6,-6c0,-3.13 2.44055,-5.75047 5.56055,-5.98047c0.131,-0.01 0.24708,-0.06916 0.33008,-0.16016c0.076,-0.084 0.12391,-0.19631 0.12891,-0.32031c0.002,-0.05 0.00481,-0.09944 0.00781,-0.14844c0.324,-5.838 5.11266,-10.39062 10.97266,-10.39062c4.51,0 8.51922,2.71016 10.19922,6.91016c0.068,0.155 0.19956,0.26378 0.35156,0.30078c0.073,0.018 0.15052,0.02 0.22852,0c5.2,-1.18 9.79102,2.79906 9.79102,7.78906c0,4.36 -3.42102,7.87023 -7.79102,7.99023c-0.03,0 -2.3633,0.00977 -2.7793,0.00977c-0.239,0.438 -0.363,0.718 -0.5,1c3.7,0 3.37216,-0.00077 3.41016,-0.00977c4.86,-0.19 8.66016,-4.11023 8.66016,-8.99023c0,-5.49 -4.94961,-9.88961 -10.59961,-8.84961c-1.92,-4.36 -6.1807,-7.15039 -10.9707,-7.15039zM26.4707,25.07031c-0.32,0 -0.59992,0.2193 -0.66992,0.5293l-1.74023,7.56055c-0.1,0.43 0.22992,0.83984 0.66992,0.83984h3.25l-0.88086,6.83008c-0.05,0.43 0.28109,0.69922 0.62109,0.69922c0.22,0 0.42883,-0.09984 0.54883,-0.33984l4.40039,-8.75c0.28,-0.54 -0.12024,-1.18945 -0.74023,-1.18945h-3.2793l2.16992,-5.23047c0.19,-0.45 -0.14086,-0.94922 -0.63086,-0.94922zM17.4707,30.07031c-0.32,0 -0.59992,0.2193 -0.66992,0.5293l-1.74023,7.56055c-0.1,0.43 0.22992,0.83984 0.66992,0.83984h3.25l-0.88086,6.83008c-0.05,0.43 0.28109,0.69922 0.62109,0.69922c0.22,0 0.42883,-0.09984 0.54883,-0.33984l4.40039,-8.75c0.28,-0.54 -0.12023,-1.18945 -0.74023,-1.18945h-3.2793l2.16992,-5.23047c0.19,-0.45 -0.14086,-0.94922 -0.63086,-0.94922z"></path></g></g></svg>