<svg version="1.1" xmlns="http://www.w3.org/2000/svg" xmlns:xlink="http://www.w3.org/1999/xlink" width="50px" height="50px" viewBox="0,0,256,256"><g fill="#ffffff" fill-rule="nonzero" stroke="none" stroke-width="1" stroke-linecap="butt" stroke-linejoin="miter" stroke-miterlimit="10" stroke-dasharray="" stroke-dashoffset="0" font-family="none" font-weight="none" font-size="none" text-anchor="none" style="mix-blend-mode: normal"><g transform="scale(5.12,5.12)"><path d="M23,8c-6.31,0 -11.46922,4.83031 -11.94922,11.07031c-3.43,0.47 -6.05078,3.42969 -6.05078,6.92969c0,3.54 2.65031,6.47969 6.07031,6.92969c-0.05,-0.14 -0.07031,-0.27969 -0.07031,-0.42969c0,-0.2 0.03914,-0.40031 0.11914,-0.57031c-2.89,-0.42 -5.11914,-2.91969 -5.11914,-5.92969c0,-3.057 2.32875,-5.62894 5.34375,-5.96094c0.072,-0.008 0.1438,-0.01453 0.2168,-0.01953c0.125,-0.01 0.23831,-0.06539 0.32031,-0.15039c0.082,-0.085 0.13367,-0.20008 0.13867,-0.33008c0.003,-0.072 0.00772,-0.14284 0.01172,-0.21484c0.357,-5.806 5.13075,-10.32422 10.96875,-10.32422c4.51,0 8.51922,2.71016 10.19922,6.91016c0.073,0.168 0.22263,0.28259 0.39063,0.30859c0.062,0.01 0.12545,0.00819 0.18945,-0.00781c5.2,-1.19 9.79102,2.79906 9.79102,7.78906c0,4.36 -3.42102,7.88 -7.79102,8h-5.37891c-0.33,0.38 -0.72039,0.72 -1.15039,1h6.66016c4.86,-0.19 8.66016,-4.12 8.66016,-9c0,-5.49 -4.94961,-9.87961 -10.59961,-8.84961c-1.92,-4.36 -6.1807,-7.15039 -10.9707,-7.15039zM25.99219,23.03516c-1.966,0 -3.75173,1.15908 -4.55273,2.95508c-0.112,0.252 0.00091,0.54816 0.25391,0.66016c0.249,0.113 0.54816,0.00005 0.66016,-0.25195c0.64,-1.435 2.06767,-2.36328 3.63867,-2.36328c2.196,0 3.98242,1.78642 3.98242,3.98242c0,2.159 -1.82342,3.98242 -3.98242,3.98242h-13.49219c-0.276,0 -0.5,0.224 -0.5,0.5c0,0.276 0.224,0.5 0.5,0.5h13.49219c2.701,0 4.98342,-2.28142 4.98242,-4.98242c0,-2.747 -2.23542,-4.98242 -4.98242,-4.98242zM16.5,36c-0.276,0 -0.5,0.224 -0.5,0.5c0,0.276 0.224,0.5 0.5,0.5h16.37891c1.626,0 2.94727,1.32227 2.94727,2.94727c0,1.625 -1.32127,2.94922 -2.94727,2.94922c-0.703,0 -1.38402,-0.25198 -1.91602,-0.70898c-0.208,-0.177 -0.52508,-0.15531 -0.70508,0.05469c-0.179,0.209 -0.15531,0.52508 0.05469,0.70508c0.713,0.612 1.62541,0.94922 2.56641,0.94922c2.177,0 3.94727,-1.77222 3.94727,-3.94922c0,-2.177 -1.77027,-3.94727 -3.94727,-3.94727z"></path></g></g></svg>